<svg id="Layer_1" data-name="Layer 1" xmlns="http://www.w3.org/2000/svg" viewBox="0 0 39.89 35.43"><defs><style>.cls-1{fill:#fff;}</style></defs><title>app-store</title><g id="app-store"><g id="Group_125" data-name="Group 125"><g id="Group_124" data-name="Group 124"><path id="Path_149" data-name="Path 149" class="cls-1" d="M25.82,2.17a2.93,2.93,0,0,0-5.37-.7L20,2.25l-.45-.78a3,3,0,0,0-4-1.08h0a2.94,2.94,0,0,0-1.07,4l2.15,3.71L8.7,21.81H2.93a2.94,2.94,0,0,0,0,5.87H25.2l-3.39-5.87H15.47L25.53,4.39A2.87,2.87,0,0,0,25.82,2.17Z" transform="translate(-0.05 0)"/></g></g><g id="Group_127" data-name="Group 127"><g id="Group_126" data-name="Group 126"><path id="Path_150" data-name="Path 150" class="cls-1" d="M37.07,21.82H31.3L24.74,10.46l-3.39,5.86L31.54,34a2.89,2.89,0,0,0,1.78,1.37,3.23,3.23,0,0,0,.76.1A2.94,2.94,0,0,0,36.62,31l-1.93-3.35h2.38a2.93,2.93,0,0,0,0-5.86Z" transform="translate(-0.05 0)"/></g></g><g id="Group_129" data-name="Group 129"><g id="Group_128" data-name="Group 128"><path id="Path_151" data-name="Path 151" class="cls-1" d="M4,30l-.58,1A2.93,2.93,0,0,0,8.46,34L10.73,30Z" transform="translate(-0.05 0)"/></g></g></g></svg>