<svg id="Layer_1" data-name="Layer 1" xmlns="http://www.w3.org/2000/svg" viewBox="0 0 35 39.09"><defs><style>.cls-1{fill:#fff;}</style></defs><title>play-store</title><path id="play-store" class="cls-1" d="M33.38,16.76,4.8.42A3.15,3.15,0,0,0,3.21,0H2.86L2.69,0H2.62A3.21,3.21,0,0,0,0,3.21V35.89A3.2,3.2,0,0,0,2.63,39h.05l.19,0h.34a3.15,3.15,0,0,0,1.59-.42L33.38,22.33A3.2,3.2,0,0,0,35,19.55h0A3.22,3.22,0,0,0,33.38,16.76Zm-11.3-3.24-2.84,3.72L12,7.76ZM32,19.91,12,31.34,24.52,14.92,32,19.19a.42.42,0,0,1,.16.57A.46.46,0,0,1,32,19.91Z" transform="translate(0 0)"/></svg>