<?xml version="1.0" encoding="utf-8"?>
<!-- Generator: Adobe Illustrator 23.0.3, SVG Export Plug-In . SVG Version: 6.00 Build 0)  -->
<svg version="1.1" id="Layer_1" xmlns="http://www.w3.org/2000/svg" xmlns:xlink="http://www.w3.org/1999/xlink" x="0px" y="0px"
	 viewBox="0 0 537.9 562.2" style="enable-background:new 0 0 537.9 562.2;" xml:space="preserve">
<style type="text/css">
	.st0{fill-rule:evenodd;clip-rule:evenodd;fill:#E5281C;}
	.st1{fill:#F9B876;}
	.st2{fill:#F7B9B0;}
	.st3{fill-rule:evenodd;clip-rule:evenodd;fill:#EE7775;}
	.st4{fill:#EB5B36;}
	.st5{fill:#EE7555;}
	.st6{fill-rule:evenodd;clip-rule:evenodd;fill:#FFFFFF;}
	.st7{fill:#EE7775;}
	.st8{fill:#E5281C;}
	.st9{fill:#F28A3E;}
</style>
<path class="st0" d="M504.4,521.6V532h8.7c2,0,3.6-0.5,4.7-1.4c1-0.9,1.6-2.2,1.6-3.7v-0.1c0-1.7-0.6-3-1.6-3.8
	c-1.1-0.9-2.8-1.4-4.9-1.4H504.4z M494.2,555.7c-1.1-1.1-1.7-2.6-1.7-4.3v-34.9c0-1.7,0.7-3.2,1.7-4.3l0,0l0,0
	c1.1-1.1,2.6-1.7,4.2-1.7h15.3c2.9,0,5.5,0.4,7.7,1.2c2.3,0.8,4.3,2,5.9,3.6l0,0c1.3,1.4,2.4,3,3.1,4.8c0.7,1.8,1,3.9,1,6.1v0.1
	c0,3.6-0.9,6.5-2.4,8.9c-1.4,2.2-3.4,3.8-5.7,5l5.8,7.1l0,0c0.5,0.6,0.9,1.2,1.2,1.9c0,0,0,0.1,0.1,0.1c0.3,0.7,0.5,1.5,0.5,2.5
	c0,1.6-0.7,3-1.7,4c-1.1,1.1-2.6,1.7-4.1,1.7c-1.3,0-2.4-0.3-3.3-0.9c-0.9-0.5-1.7-1.3-2.3-2.1h0l-9.1-11.6h-6.1v8.5
	c0,1.7-0.7,3.2-1.7,4.3c-1.1,1.1-2.6,1.7-4.2,1.7C496.8,557.5,495.3,556.8,494.2,555.7L494.2,555.7z M453,543
	c2.1,2.2,5.1,3.6,8.6,3.6c3.5,0,6.5-1.4,8.6-3.6c2.2-2.3,3.5-5.5,3.5-9.1v-0.1c0-3.6-1.3-6.8-3.5-9.2c-2.1-2.2-5.1-3.6-8.6-3.6
	c-3.5,0-6.5,1.4-8.6,3.6c-2.2,2.3-3.5,5.5-3.5,9.1v0.1C449.5,537.4,450.8,540.6,453,543z M479,551c-4.4,4.3-10.4,6.9-17.4,6.9
	c-7,0-13-2.6-17.4-6.8c-4.4-4.3-7.1-10.4-7.1-17.1v-0.1c0-6.7,2.7-12.8,7.1-17.1c4.4-4.3,10.4-6.9,17.4-6.9c7,0,13,2.6,17.4,6.8
	c4.4,4.3,7.1,10.4,7.1,17.1v0.1C486.1,540.5,483.4,546.6,479,551z M412.3,555.7c-1.1-1.1-1.7-2.6-1.7-4.3v-29.7h-8.2
	c-1.5,0-2.9-0.6-3.9-1.6c0,0,0,0-0.1-0.1c-1-1-1.6-2.4-1.6-4c0-1.5,0.6-3,1.6-4l0,0l0,0c1-1,2.4-1.7,3.9-1.7h28.2
	c1.5,0,2.9,0.6,3.9,1.7c1,1,1.6,2.4,1.6,4c0,1.5-0.6,3-1.6,4c-1,1-2.4,1.7-3.9,1.7h-8.2v29.7c0,1.7-0.7,3.2-1.7,4.3v0l0,0l0,0
	c-1.1,1.1-2.6,1.7-4.2,1.7C414.8,557.5,413.3,556.8,412.3,555.7L412.3,555.7L412.3,555.7z M376.7,525.7l-4.4,10.5h8.8L376.7,525.7z
	 M355.5,555.8c-1-1-1.6-2.5-1.6-4c0-0.9,0.3-1.7,0.7-2.6l0,0l15.3-34.9h0l0,0c0.6-1.4,1.5-2.6,2.7-3.3c1.1-0.8,2.5-1.2,4-1.2h0.6
	c1.5,0,2.8,0.4,4,1.2c1.1,0.8,2,1.9,2.6,3.3l0,0.1l15.3,34.9h0c0.2,0.4,0.3,0.8,0.4,1.2c0.1,0.4,0.2,0.8,0.2,1.3
	c0,1.6-0.6,3.1-1.7,4.1c-1,1.1-2.5,1.7-4.1,1.7c-1.3,0-2.5-0.4-3.4-1.1l0,0c-1-0.7-1.7-1.7-2.3-2.9l0,0l-2.7-6.3h-17.8l-2.8,6.6l0,0
	l0,0c-0.5,1.2-1.3,2.1-2.2,2.7c-0.9,0.6-2.1,1-3.3,1C357.9,557.5,356.5,556.8,355.5,555.8z M341.7,556.3c-2.7,1-5.7,1.6-9.4,1.6
	c-6.7,0-12.6-2.6-16.8-6.9c-4.3-4.3-6.8-10.3-6.8-17v-0.1c0-6.7,2.6-12.8,6.9-17.2c4.2-4.2,10.2-6.8,17.1-6.8c3.4,0,6.3,0.5,8.8,1.3
	c2.5,0.8,4.6,2,6.6,3.4l0,0l0,0c0.7,0.5,1.3,1.2,1.7,2.1l0,0.1c0.4,0.8,0.6,1.7,0.6,2.7c0,1.6-0.7,3.1-1.7,4.2
	c-1.1,1.1-2.5,1.7-4.2,1.7c-0.8,0-1.5-0.2-2.1-0.4c-0.5-0.2-1-0.5-1.4-0.7c0,0-0.1,0-0.1-0.1c-1.3-0.9-2.6-1.7-3.9-2.2
	c-1.3-0.5-2.8-0.8-4.4-0.8c-3.3,0-6.2,1.4-8.2,3.6c-2.1,2.3-3.4,5.5-3.4,9.1v0.1c0,3.6,1.2,6.9,3.4,9.2c2,2.2,4.9,3.6,8.2,3.6
	c1.9,0,3.5-0.3,4.9-0.8c1.4-0.5,2.7-1.4,4-2.4l0,0c0.5-0.4,1.1-0.7,1.7-1c0.6-0.2,1.2-0.3,1.9-0.3c1.5,0,2.9,0.6,4,1.7
	c1,1,1.7,2.4,1.7,4c0,0.9-0.2,1.7-0.5,2.4c-0.4,0.8-0.9,1.5-1.5,2l0,0C346.6,553.8,344.3,555.3,341.7,556.3z M271.2,543
	c2.1,2.2,5.1,3.6,8.6,3.6c3.5,0,6.5-1.4,8.6-3.6c2.2-2.3,3.5-5.5,3.5-9.1v-0.1c0-3.6-1.3-6.8-3.5-9.2c-2.1-2.2-5.1-3.6-8.6-3.6
	c-3.5,0-6.5,1.4-8.6,3.6c-2.2,2.3-3.5,5.5-3.5,9.1v0.1C267.7,537.4,269,540.6,271.2,543z M297.1,551c-4.4,4.3-10.4,6.9-17.4,6.9
	c-7,0-13-2.6-17.4-6.8c-4.4-4.3-7.1-10.4-7.1-17.1v-0.1c0-6.7,2.7-12.8,7.1-17.1c4.4-4.3,10.4-6.9,17.4-6.9c7,0,13,2.6,17.4,6.8
	c4.4,4.3,7.1,10.4,7.1,17.1v0.1C304.3,540.5,301.6,546.6,297.1,551z M222.6,555.3c-1.1-1.1-1.7-2.6-1.7-4.3v-34.9
	c0-1.7,0.7-3.2,1.7-4.3l0,0l0,0c1.1-1.1,2.6-1.7,4.2-1.7c1.6,0,3.1,0.6,4.2,1.7l0.1,0.1c1.1,1.1,1.7,2.6,1.7,4.3V546h16.8
	c1.5,0,2.9,0.6,3.9,1.6l0,0l0,0l0,0c1,1,1.6,2.4,1.6,3.9c0,1.5-0.6,2.9-1.5,3.9l-0.1,0.1c-1,1-2.4,1.6-3.9,1.6h-22.7
	C225.2,557.1,223.8,556.5,222.6,555.3L222.6,555.3z M189.9,522.1l-5.1,12.2H195L189.9,522.1z M166.5,555.7c-1.1-1.1-1.8-2.7-1.8-4.4
	c0-0.5,0.1-1,0.2-1.5c0.1-0.4,0.3-0.9,0.5-1.3l0,0l17-38.7l0,0l0,0c0.7-1.6,1.7-2.8,2.9-3.7c1.2-0.8,2.7-1.3,4.4-1.3h0.6
	c1.7,0,3.1,0.5,4.3,1.3c1.2,0.8,2.2,2.1,2.9,3.6l0,0.1l17,38.7c0.2,0.4,0.4,0.9,0.5,1.3h0l0,0c0.1,0.5,0.2,0.9,0.2,1.4
	c0,1.8-0.7,3.3-1.8,4.5c-1.1,1.1-2.7,1.9-4.4,1.9c-1.5,0-2.7-0.4-3.7-1.2c-1.1-0.8-1.9-1.9-2.5-3.2l0,0l-3-7h-20l-3.1,7.4l0,0l0,0
	c-0.5,1.3-1.4,2.3-2.4,3c-1,0.7-2.3,1.1-3.6,1.1C169.1,557.5,167.6,556.8,166.5,555.7z M148.2,556.3c-3,1-6.4,1.6-10.1,1.6
	c-7.9,0-14.5-2.8-19.2-7.4c-4.8-4.7-7.6-11.4-7.6-19v-0.1c0-7.4,2.9-14.1,7.8-19c4.7-4.7,11.4-7.6,19-7.6c3.8,0,7,0.4,9.8,1.3
	c2.8,0.8,5.2,2.1,7.5,3.7l0.1,0c0.7,0.5,1.5,1.3,2,2.3c0.4,0.8,0.7,1.8,0.7,2.9c0,1.8-0.7,3.3-1.8,4.5l-0.1,0.1
	c-1.2,1.2-2.8,1.9-4.5,1.9c-0.9,0-1.7-0.2-2.3-0.4c-0.6-0.3-1.2-0.6-1.6-0.9v0c-1.4-1-2.8-1.8-4.4-2.3c-1.6-0.5-3.4-0.8-5.6-0.8
	c-3.6,0-6.8,1.6-9.1,4.1c-2.4,2.6-3.8,6.2-3.8,10.1v0.1c0,4.2,1.4,7.9,3.9,10.4c2.4,2.5,5.8,4,9.8,4c1.9,0,3.6-0.2,5.2-0.7
	c1.4-0.4,2.6-1,3.8-1.7v-5.3h-6.1c-1.6,0-3.1-0.6-4.1-1.7c-1-1-1.7-2.5-1.7-4.1c0-1.6,0.7-3.1,1.7-4.1c1-1.1,2.5-1.7,4.1-1.7h12.3
	c1.8,0,3.4,0.7,4.5,1.8l0.1,0.1c1.2,1.2,1.9,2.8,1.9,4.6v12c0,1.8-0.3,3.3-1.1,4.6c-0.7,1.3-1.8,2.4-3.3,3.3v0
	C153.6,554.1,151.1,555.4,148.2,556.3z M69.4,541.6c2.4,2.5,5.8,4.1,9.7,4.1c3.9,0,7.3-1.5,9.6-4c2.5-2.6,3.9-6.2,3.9-10.2v-0.1
	c0-4-1.5-7.6-4-10.3c-2.4-2.5-5.8-4.1-9.7-4.1c-3.9,0-7.3,1.5-9.6,4c-2.5,2.6-3.9,6.2-3.9,10.2v0.1C65.4,535.3,66.9,539,69.4,541.6z
	 M98.2,550.3c-4.8,4.7-11.5,7.6-19.3,7.6c-7.7,0-14.4-2.9-19.2-7.6c-4.9-4.8-7.8-11.5-7.8-18.9v-0.1c0-7.4,2.9-14.1,7.9-19
	c4.8-4.7,11.5-7.6,19.3-7.6c7.7,0,14.4,2.9,19.2,7.6c4.9,4.8,7.8,11.5,7.8,18.9v0.1C106.1,538.8,103.1,545.5,98.2,550.3z
	 M23.2,555.6c-1.2-1.2-1.9-2.8-1.9-4.6v-13.6L5.8,516.1c-0.4-0.6-0.8-1.3-1.1-2c-0.3-0.8-0.4-1.6-0.4-2.5c0-1.8,0.7-3.4,1.9-4.5
	c1.2-1.1,2.8-1.8,4.6-1.8c1.5,0,2.7,0.4,3.7,1.1c1,0.7,1.8,1.6,2.5,2.7l0,0l10.9,15.9l11.1-16c0.7-1.1,1.6-2,2.5-2.7l0,0l0,0
	c1-0.7,2.2-1.1,3.5-1.1c1.9,0,3.4,0.6,4.5,1.7c0,0,0,0,0.1,0.1c1.2,1.2,1.8,2.8,1.8,4.6c0,0.9-0.2,1.7-0.5,2.5
	c-0.3,0.7-0.7,1.4-1.1,1.9v0l0,0l-15.5,21.1V551c0,1.8-0.7,3.5-1.9,4.6c-1.2,1.2-2.8,1.9-4.6,1.9C26,557.5,24.4,556.8,23.2,555.6z"
	/>
<path class="st1" d="M256.1,26.5c-4.7-3.8-5.4-10.7-1.7-15.4c3.8-4.7,10.6-5.5,15.3-1.7c44.9,36.5,68.3,80.1,78.2,124.2
	c13.1,58.2,2.5,117-13.3,160.8c-2,5.7-8.3,8.6-13.9,6.6c-5.6-2.1-8.6-8.3-6.5-14c14.7-40.7,24.6-95,12.5-148.5
	C317.8,98.7,296.6,59.4,256.1,26.5"/>
<path class="st2" d="M253.7,7.4c4.7-3.8,11.5-3,15.3,1.7c3.8,4.7,3,11.6-1.7,15.4c-0.5,0.4-1.8,1.4-3.1,2.5c-1.9,1.5-4,3.1-4.4,3.5
	l0,0l0,0c-38.4,32.9-58.3,71.8-66.5,110.9c-11.1,52.5-1.2,105.7,13.1,145.6c2,5.7-0.9,12-6.5,14c-5.6,2.1-11.9-0.9-13.9-6.6
	c-15.5-43-26-100.4-14-157.6c9.1-43.4,31.2-86.6,73.8-123l0,0c1.5-1.3,3.4-2.8,5.1-4.1C251.9,8.8,252.9,8,253.7,7.4"/>
<path class="st3" d="M260.4,207.4c35.5,0,60.1,29.3,64.3,64.8c4,33.8-45.1,104-64.3,129.3c-22.1-28.3-69-99.5-64.3-129.3
	C201.7,236.8,224.9,207.4,260.4,207.4"/>
<path class="st4" d="M267.3,482.5c-7.1,0-12.9-5.8-12.9-13c0-7.2,5.8-13,12.9-13c33.1,0,70-7.7,102.6-19.9
	c25.7-9.6,48.5-21.9,64.5-35.1c-32.8-17.1-70.8-19.6-108.1-11.5c-48.3,10.5-95.3,38.5-129,75.9c-4.8,5.3-12.9,5.7-18.2,0.9
	c-5.3-4.8-5.6-13-0.9-18.3c37.2-41.2,89.2-72.2,142.7-83.8c49.2-10.7,99.8-5.1,141.8,23.7l0,0c0.4,0.3,0.9,0.6,1.3,1
	c5.3,4.7,5.8,12.9,1.1,18.3c-18.1,20.6-49.9,39.6-86.3,53.2C343.4,474.2,303.3,482.5,267.3,482.5"/>
<path class="st5" d="M268.2,456.6c7.1,0,12.9,5.8,12.9,13c0,7.2-5.8,13-12.9,13c-36.1,0-76.1-8.4-111.5-21.6
	c-36.4-13.6-68.2-32.6-86.3-53.2c-4.7-5.3-4.2-13.5,1.1-18.3c0.4-0.4,0.8-0.7,1.3-1l0,0c34.3-23.5,74.3-31.6,114.7-27.9l0,0v0
	c43.8,4,88,21.8,125.4,48.5c5.8,4.1,7.1,12.2,3,18.1c-4.1,5.8-12.1,7.2-17.9,3c-33.9-24.2-73.7-40.3-112.8-43.9v0
	c-29.4-2.7-58.4,1.8-84.2,15.2c16,13.3,38.9,25.5,64.6,35.1C198.2,448.8,235,456.6,268.2,456.6"/>
<path class="st6" d="M260.1,85.8c26.8,0,48.5,21.9,48.5,48.9c0,27-21.7,48.9-48.5,48.9c-26.8,0-48.5-21.9-48.5-48.9
	C211.5,107.7,233.3,85.8,260.1,85.8"/>
<path class="st7" d="M285.3,109.3c-6.5-6.5-15.4-10.5-25.2-10.5c-9.8,0-18.8,4-25.2,10.5h0c-6.4,6.5-10.4,15.5-10.4,25.4
	c0,9.9,4,18.9,10.4,25.4c6.4,6.5,15.4,10.5,25.2,10.5c9.8,0,18.8-4,25.2-10.5c6.5-6.5,10.4-15.5,10.4-25.4
	C295.7,124.8,291.8,115.8,285.3,109.3L285.3,109.3z M260.1,72.8c17,0,32.3,6.9,43.4,18.1l0,0c11.1,11.2,18,26.7,18,43.7
	c0,17.1-6.9,32.6-18,43.8c-11.1,11.2-26.5,18.1-43.4,18.1c-17,0-32.3-6.9-43.4-18.1c-11.1-11.2-18-26.7-18-43.8
	c0-17,6.9-32.5,18-43.7l0,0C227.8,79.8,243.1,72.8,260.1,72.8z"/>
<path class="st8" d="M268.2,456.6c7.1,0,12.9,5.8,12.9,13c0,7.2-5.8,13-12.9,13c-36.1,0-76.1-8.4-111.5-21.6
	c-36.4-13.6-68.2-32.6-86.3-53.2c-4.7-5.3-4.2-13.5,1.1-18.3c5.3-4.7,13.4-4.2,18.1,1.1c15.3,17.4,43.3,33.9,76,46.1
	C198.2,448.8,235,456.6,268.2,456.6"/>
<path class="st6" d="M260.1,252.7c12.2,0,22.1,10,22.1,22.3c0,12.3-9.9,22.3-22.1,22.3c-12.2,0-22.1-10-22.1-22.3
	C238,262.7,247.9,252.7,260.1,252.7"/>
<path class="st1" d="M271.5,263.5L271.5,263.5c-2.9-2.9-7-4.8-11.4-4.8c-4.5,0-8.5,1.8-11.4,4.8l0,0c-2.9,2.9-4.7,7-4.7,11.5
	c0,4.5,1.8,8.6,4.7,11.5l0,0c2.9,2.9,7,4.8,11.4,4.8c4.5,0,8.5-1.8,11.4-4.8l0,0c2.9-2.9,4.7-7,4.7-11.5
	C276.2,270.5,274.4,266.5,271.5,263.5 M260.1,246.8c7.7,0,14.8,3.2,19.8,8.3v0c5.1,5.1,8.2,12.2,8.2,20c0,7.8-3.1,14.9-8.2,20h0
	c-5.1,5.1-12.1,8.3-19.8,8.3c-7.7,0-14.7-3.2-19.8-8.3h0c-5.1-5.1-8.2-12.2-8.2-20c0-7.8,3.1-14.9,8.2-20v0
	C245.3,249.9,252.3,246.8,260.1,246.8z"/>
<path class="st9" d="M462.8,388.5c5.9,4,7.4,12.1,3.4,18c-4,5.9-12,7.4-17.9,3.4c-18.4-12.6-38.8-19.9-60.1-22.8
	c-23.3-3.2-47.7-1-71.7,5.4c-9,2.4-17.8,5.3-26.4,8.8c-8.7,3.5-17.3,7.6-25.9,12.2c-1.9,1-3.5,1.9-4.8,2.6c-1.2,0.7-2.8,1.6-4.8,2.8
	c-6.1,3.6-14,1.6-17.6-4.6c-3.6-6.2-1.6-14.1,4.5-17.8c1.3-0.8,3.1-1.8,5.2-3c2-1.2,3.8-2.1,5.3-3c9.2-5,18.7-9.5,28.6-13.4
	c9.7-3.9,19.5-7.2,29.3-9.8c27.1-7.2,54.9-9.6,81.6-6C416.8,364.8,441,373.5,462.8,388.5"/>
<path class="st8" d="M294,234.5c-8.7-8.7-20.2-14.1-33.6-14.1c-13,0-23.8,5-32.2,13.1c-0.2,0.2-0.4,0.4-0.6,0.6
	c-9.9,10-16.4,24.3-18.9,40.1c-1.8,11.3,7.8,31.2,20.4,51.7c9.7,15.9,21.4,32,31.3,45c21.2-27.8,54.4-73.3,51.5-97.2
	C310.1,258.2,303.7,244.3,294,234.5 M260.4,194.4c20.8,0,38.5,8.3,51.9,21.7c13.8,13.9,22.7,33.3,25.2,54.5
	c4.3,36.6-39.6,93.8-62.2,123.2c-1,1.3-1.9,2.5-4.6,6.1c-4.3,5.7-12.4,6.8-18,2.4c-0.9-0.7-1.7-1.4-2.3-2.3l0,0
	c-11.1-14.3-28.6-37.1-43-60.6c-15.3-25-26.8-50.8-23.9-69.3c3.3-21.1,12.3-40.6,26-54.4c0.3-0.3,0.5-0.5,0.8-0.7
	C223.2,202.2,240.2,194.4,260.4,194.4z"/>
</svg>
